<svg xmlns="http://www.w3.org/2000/svg" width="1763" height="1008" fill="none"><path fill="#000" d="M1577.32 921.909c-299.39 212.701-559.07-35.232-585.803-64.932-11.476-12.746-21.878-26.291-30.441-41.193-.536-.932-1.007-1.902-1.606-3.043 15.963-2.63 29.829.163 40.53 12.929 22.92 27.353 187.18 233.67 419.4 112.344 45.53-23.793 176.45-106.787 244.56-299.776 168.37-477.014-417.35-622.737-660.07-340.232-6.52 7.589-13.526 14.578-23.607 17.337-6.469 1.77-12.921 1.495-19.806-.062.916-1.515 1.603-2.71 2.344-3.875 33.013-52.091 119.499-150.173 278.429-180.252 376.29-71.218 670.22 355.08 439.65 686.237-28.4 40.772-63.04 75.438-103.58 104.518ZM545.831 399.006c-35.261 0-63.098-5.722-83.512-17.167-20.105-11.135-30.158-29.384-30.158-54.747 0-15.465 6.186-28.301 18.559-38.508 12.372-10.208 27.064-17.476 44.076-21.807-13.919-4.33-20.878-12.836-20.878-25.517 0-10.517 6.186-18.249 18.558-23.198-13.3-4.64-24.435-12.682-33.405-24.126-8.661-11.445-12.991-24.126-12.991-38.045 0-25.363 8.97-43.767 26.91-55.211 18.249-11.445 42.529-17.167 72.841-17.167h97.432V96.04l-41.756 5.568c12.99 4.949 23.507 12.527 31.549 22.734 8.351 10.207 12.527 20.723 12.527 31.549 0 25.363-8.661 43.612-25.982 54.747-17.012 11.135-41.602 16.703-73.77 16.703-16.084 0-27.837.928-35.261 2.784-7.423 1.546-11.135 5.258-11.135 11.135 0 4.949 3.712 8.196 11.135 9.743 7.424 1.546 19.177 2.474 35.261 2.784 33.405.618 60.624 7.268 81.657 19.95 21.342 12.372 32.014 30.157 32.014 53.355 0 25.363-10.208 43.612-30.622 54.747-20.105 11.445-47.788 17.167-83.049 17.167Zm0-190.224c24.745 0 37.117-17.63 37.117-52.891 0-17.321-3.402-30.621-10.207-39.901-6.805-9.279-15.775-13.918-26.91-13.918-11.444 0-20.569 4.485-27.373 13.454-6.496 8.97-9.743 22.425-9.743 40.365 0 35.261 12.372 52.891 37.116 52.891Zm0 169.346c16.084 0 28.611-4.331 37.581-12.991 8.97-8.351 13.455-21.033 13.455-38.045 0-13.609-4.33-24.899-12.991-33.869-8.351-9.279-19.796-15.311-34.333-18.094l-21.806-2.32c-10.826 4.639-19.022 11.29-24.59 19.95-5.568 8.661-8.351 20.105-8.351 34.333 0 17.012 4.485 29.694 13.455 38.045 8.969 8.66 21.496 12.991 37.58 12.991Zm-179.328-67.274c-21.342 0-37.89-5.722-49.643-17.167-11.754-11.753-17.631-28.611-17.631-50.571V109.031h-27.837V88.153h27.837V46.397l23.198-27.838h37.117v69.594h51.036v20.878h-51.036v136.868c0 16.703 2.01 28.302 6.031 34.797 4.021 6.187 10.053 9.28 18.095 9.28 8.661 0 17.321-2.011 25.982-6.032 3.402-1.856 6.959-4.021 10.671-6.495l6.495 12.991c-4.021 3.402-8.815 6.804-14.383 10.207-12.99 6.805-28.301 10.207-45.932 10.207ZM37.117 60.315c0-15.775-2.165-27.374-6.496-34.797-4.33-7.733-12.99-11.6-25.981-11.6H0V0h55.675C66.81 0 75.316 1.856 81.193 5.568c5.877 3.711 10.053 9.897 12.527 18.558 2.474 8.351 3.712 20.414 3.712 36.189v40.828c2.783-2.165 7.578-5.103 14.382-8.815 12.373-5.877 24.59-8.815 36.653-8.815 25.054 0 45.932 6.495 62.635 19.486 17.012 12.682 25.518 34.488 25.518 65.418v137.797h-60.315V170.737c0-22.27-4.021-38.508-12.063-48.716-7.733-10.207-17.631-15.31-29.694-15.31-8.351 0-17.166 2.784-26.445 8.351-3.712 2.165-7.269 4.794-10.671 7.887v183.265H37.117v-245.9Z"/><path fill="#000" d="M1496.1 425.917c0-15.775-2.17-27.374-6.5-34.797-4.33-7.733-12.99-11.599-25.98-11.599h-4.64v-13.919h55.68c11.13 0 19.64 1.856 25.51 5.568 5.88 3.711 10.06 9.897 12.53 18.558 2.47 8.351 3.71 20.414 3.71 36.189v245.899h-60.31V425.917Zm-167.54 250.538c-25.05 0-44.54-5.567-58.45-16.702-13.61-11.445-20.42-26.755-20.42-45.932 0-15.466 3.56-28.302 10.67-38.509 7.43-10.207 20.26-17.94 38.51-23.198 18.25-5.258 43.61-7.887 76.09-7.887h6.96c0-26.91-3.71-45.932-11.14-57.068-7.42-11.444-18.4-17.166-32.94-17.166-12.06 0-21.96 2.938-29.69 8.815-7.73 5.877-13.3 16.857-16.7 32.941h-25.52c0-10.516.62-19.486 1.86-26.909 1.54-7.424 4.79-13.919 9.74-19.487 9.59-10.825 32.79-16.238 69.59-16.238 30.93 0 54.44 8.196 70.52 24.59 16.4 16.084 24.59 40.364 24.59 72.841v125.27h-39.43l-16.24-20.879h-2.32c-2.78 4.331-7.11 8.661-12.99 12.991-10.52 8.351-24.75 12.527-42.69 12.527Zm13.92-23.198c6.5 0 12.07-1.237 16.71-3.712 4.64-2.783 9.12-6.495 13.45-11.135 4.02-4.33 7.11-9.433 9.28-15.31v-57.995h-6.96c-21.96 0-37.89 4.021-47.79 12.063-9.9 7.732-14.84 19.95-14.84 36.653 0 12.681 2.63 22.424 7.88 29.229 5.26 6.805 12.68 10.207 22.27 10.207Zm-208.36 23.198c-23.82 0-44.08-5.103-60.78-15.311-16.7-10.207-29.38-23.816-38.04-40.828-8.35-17.321-12.53-36.498-12.53-57.531s4.18-40.055 12.53-57.067c8.66-17.321 21.34-31.085 38.04-41.293 16.7-10.207 36.96-15.31 60.78-15.31 37.12 0 61.09 5.413 71.91 16.238 5.26 5.259 8.51 12.218 9.75 20.879 1.24 8.66 1.85 23.352 1.85 44.076h-13.91c-1.24-19.487-7.27-34.333-18.1-44.54-10.83-10.517-25.67-15.775-44.54-15.775-17.01 0-30.62 7.887-40.83 23.662-9.9 15.465-14.84 38.509-14.84 69.13 0 61.861 19.33 92.792 57.99 92.792 14.85 0 27.22-3.248 37.12-9.743 10.2-6.805 19.95-16.393 29.23-28.766l14.38 10.671c-8.97 13.919-20.26 25.518-33.87 34.797-13.61 9.28-32.32 13.919-56.14 13.919ZM949.186 428.7c-11.135 0-19.795-3.403-25.981-10.207-5.877-6.805-8.816-15.156-8.816-25.054 0-8.042 2.32-14.383 6.96-19.023 4.949-4.639 11.135-6.959 18.558-6.959 11.135 0 19.641 3.402 25.518 10.207 6.186 6.805 9.279 15.156 9.279 25.054 0 8.042-2.474 14.383-7.423 19.022-4.64 4.64-10.671 6.96-18.095 6.96Zm-30.157 85.368c0-15.774-2.165-27.373-6.495-34.797-4.331-7.732-12.991-11.599-25.982-11.599h-4.64v-13.918h55.675c11.135 0 19.641 1.855 25.518 5.567 5.877 3.712 10.053 9.898 12.527 18.559 2.474 8.351 3.712 20.414 3.712 36.188v157.747h-60.315V514.068ZM743.246 676.455c-31.24 0-55.366-10.516-72.378-31.549-16.702-21.342-25.054-48.716-25.054-82.121 0-33.405 8.506-60.624 25.518-81.657 17.321-21.342 42.066-32.013 74.234-32.013 11.135 0 23.043 2.32 35.725 6.959 4.639 2.165 8.97 4.485 12.991 6.96v-37.117c0-15.775-2.165-27.374-6.496-34.797-4.33-7.733-12.991-11.599-25.982-11.599h-4.639v-13.919h55.675c11.135 0 19.641 1.856 25.518 5.568 5.877 3.711 10.052 9.897 12.527 18.558 2.474 8.351 3.711 20.414 3.711 36.189v245.899H815.16l-16.239-20.879h-2.319c-2.784 4.331-7.115 8.661-12.991 12.991-10.517 8.352-23.972 12.527-40.365 12.527Zm9.279-20.878c11.445 0 21.806-4.949 31.086-14.847 3.402-3.402 6.959-8.506 10.671-15.31V483.912c-3.093-2.475-6.805-4.794-11.135-6.96-9.898-4.639-19.332-6.959-28.302-6.959-30.931 0-46.396 30.931-46.396 92.792 0 28.766 3.402 51.5 10.207 68.202 7.114 16.393 18.404 24.59 33.869 24.59Zm-236.057 20.878c-21.342 0-40.056-4.949-56.14-14.847-16.083-9.897-28.61-23.352-37.58-40.364-8.661-17.321-12.991-36.808-12.991-58.459 0-24.126 4.33-44.695 12.991-61.707 8.97-17.012 21.187-29.848 36.653-38.508 15.465-8.97 32.941-13.455 52.427-13.455 19.177 0 36.498 3.866 51.964 11.599 15.465 7.732 27.683 18.713 36.652 32.941 8.97 13.919 13.455 30.003 13.455 48.252 0 5.877-.309 12.527-.928 19.95l-.928 9.279H472.391c0 29.384 4.485 50.881 13.455 64.491 8.97 13.3 21.497 19.95 37.581 19.95 14.847 0 27.219-3.248 37.117-9.743 10.207-6.805 19.95-16.393 29.229-28.766l14.383 10.671c-8.97 13.919-20.26 25.518-33.869 34.797-13.3 9.28-31.24 13.919-53.819 13.919Zm34.797-126.197c0-29.075-3.403-49.644-10.207-61.707-6.805-12.372-16.548-18.558-29.23-18.558-11.754 0-21.342 6.341-28.765 19.022-7.115 12.373-10.672 32.787-10.672 61.243h78.874ZM46.396 514.069c0-15.774-2.165-27.374-6.495-34.797-4.021-7.733-12.527-11.599-25.518-11.599h-4.64v-13.919h45.932c20.105 0 33.25 5.877 39.437 17.631h1.856c17.012-14.847 36.498-22.27 58.459-22.27 15.156 0 28.301 2.938 39.436 8.815 11.445 5.568 19.641 11.444 24.59 17.63 7.423-8.042 16.239-14.382 26.446-19.022 10.207-4.949 23.352-7.423 39.436-7.423 54.129 0 81.193 28.456 81.193 85.368v137.333h-60.314V534.019c0-21.342-3.403-36.962-10.208-46.86-6.804-9.897-15.774-14.846-26.909-14.846-8.351 0-16.084 1.701-23.198 5.103-7.114 3.093-12.682 7.269-16.703 12.527.619 1.237 1.856 4.64 3.712 10.207 2.474 9.28 3.712 20.724 3.712 34.333v137.333h-60.315V534.019c0-21.342-3.403-36.962-10.207-46.86-6.805-9.897-15.775-14.846-26.91-14.846-6.495 0-13.3 2.01-20.414 6.031-6.805 3.712-11.909 7.888-15.311 12.527l1.392 6.496c1.237 3.711 1.856 9.743 1.856 18.094v156.355H46.396V514.069Z"/></svg>